<svg width="122" height="59" viewBox="0 0 122 59" fill="none" xmlns="http://www.w3.org/2000/svg">
<path d="M102.742 36.9635C101.421 36.9635 100.502 36.1307 100.502 34.8384C100.502 33.5462 101.421 32.7134 102.742 32.7134C104.12 32.7134 105.011 33.5462 105.011 34.8384C105.011 36.1307 104.12 36.9635 102.742 36.9635Z" fill="#0E0E0E"/>
<path d="M92.4039 34.1778H92.2603C91.1978 36.0157 89.446 36.9634 87.3784 36.9634C83.7601 36.9634 80.8022 34.2065 80.8022 29.5544C80.8022 24.6438 83.7314 21.887 87.4646 21.887C89.3025 21.887 90.9106 22.7198 91.9444 24.2705V18.1825C91.9444 17.5507 91.6572 17.2635 91.1691 17.2635H89.7906V16H95.7063V34.5224C95.7063 35.1255 95.9648 35.4126 96.453 35.4126H97.8601V36.6762H92.4039V34.1778ZM92.0306 29.5831C92.0306 25.5627 90.7957 23.5526 88.4122 23.5526C86 23.5526 84.7652 25.534 84.7652 29.5257C84.7652 33.4599 86 35.4126 88.4122 35.4126C90.7957 35.4126 92.0306 33.4599 92.0306 29.5831Z" fill="#0E0E0E"/>
<path d="M78.2155 31.8807C77.5837 35.0683 75.3725 36.9636 71.668 36.9636C67.4179 36.9636 64.1155 34.2068 64.1155 29.4398C64.1155 24.644 67.3892 21.8872 71.5244 21.8872C75.4012 21.8872 78.4165 24.443 78.4165 29.3249H68.021C68.021 29.6121 68.021 29.9279 68.0497 30.1864C68.1933 33.7186 69.6866 35.5278 72.3285 35.5278C72.5583 35.5278 72.7306 35.499 72.9316 35.4703C74.9705 35.3267 76.234 34.0919 76.7222 31.8807H78.2155ZM71.5532 23.1508C69.4568 23.1508 68.2507 24.7876 68.0497 28.0613H74.9418C74.8556 24.7589 73.7069 23.1508 71.5532 23.1508Z" fill="#0E0E0E"/>
<path d="M53.1939 41.1563V42.4198H44.6362V41.1563H46.0146C46.5028 41.1563 46.79 40.8691 46.79 40.2373V24.3569C46.79 23.7251 46.5028 23.4379 46.0146 23.4379H44.6362V22.1744H50.1212V24.7589H50.2647C51.2698 22.8923 52.9929 21.8872 55.1179 21.8872C58.7362 21.8872 61.6941 24.644 61.6941 29.3249C61.6941 34.2068 58.765 36.9636 55.0318 36.9636C53.1364 36.9636 51.557 36.1021 50.5519 34.4652V40.2373C50.5519 40.8691 50.8391 41.1563 51.3273 41.1563H53.1939ZM50.4658 29.2675C50.4658 33.2017 51.7006 35.3267 54.1128 35.3267C56.4963 35.3267 57.7311 33.3165 57.7311 29.3249C57.7311 25.3907 56.4963 23.4666 54.0841 23.4666C51.7006 23.4666 50.4658 25.3907 50.4658 29.2675Z" fill="#0E0E0E"/>
<path d="M36.3374 38.1122C35.1313 41.0988 33.6954 42.5633 31.4842 42.6782C31.2545 42.7069 31.0535 42.7069 30.8237 42.6782C28.67 42.5633 27.4351 41.2136 27.4351 39.7204C27.4351 38.6291 28.1818 37.9686 29.1294 37.9686C29.991 37.9686 30.7376 38.5142 30.7376 39.4906C30.7376 40.065 30.4217 40.5244 29.9335 40.6967C29.8187 40.7542 29.7325 40.7829 29.6176 40.8116C29.9335 41.0988 30.4504 41.3572 31.1971 41.3572C32.8914 41.3572 33.8103 40.2947 34.7867 38.1696C34.9016 37.9973 34.9877 37.7963 35.1026 37.5953L29.4166 24.6153C29.0146 23.6676 28.7848 23.4379 28.0956 23.4379H27.2341V22.1743H35.0451V23.4379H34.2411C34.0975 23.4379 33.9826 23.4379 33.8965 23.4666C33.2934 23.524 33.1498 23.8686 33.437 24.5865L36.883 33.058L40.1568 24.5865C40.5014 23.6963 40.1855 23.4379 39.3527 23.4379H38.5486V22.1743H43.8612V23.4379H43.1433C42.2531 23.4379 42.0521 23.725 41.6213 24.7876L41.3916 25.4193L36.3374 38.1122Z" fill="#0E0E0E"/>
<path d="M26.2807 33.2874C26.2807 35.5561 25.0458 36.9632 22.4326 36.9632C19.7045 36.9632 18.1251 35.7571 18.1251 32.4259V23.4375H16V22.174H17.0912C18.4984 22.174 19.1876 21.6858 19.5609 19.7043L19.8768 18.0962H21.887V22.174H26.3668V23.4375H21.887V33.1151C21.887 34.7807 22.4326 35.2976 23.4377 35.2976C24.4141 35.2976 25.132 34.752 25.132 33.2013V31.7655H26.2807V33.2874Z" fill="#0E0E0E"/>
</svg>
