<svg width="103" height="33" viewBox="0 0 103 33" fill="none" xmlns="http://www.w3.org/2000/svg">
<path d="M100.196 25.202C98.9578 25.202 98.132 24.4106 98.132 23.2063C98.132 21.9332 98.9578 21.1762 100.196 21.1762C101.47 21.1762 102.33 21.9332 102.33 23.2063C102.33 24.4106 101.47 25.202 100.196 25.202Z" fill="#F9F9F9"/>
<path d="M89.3476 21.7268H89.1755C87.9368 23.9978 85.8035 25.2021 83.2917 25.2021C78.9218 25.2021 75.4121 21.9332 75.4121 16.359C75.4121 10.6472 78.9218 7.3784 83.3605 7.3784C85.7003 7.3784 87.7648 8.51388 89.0035 10.6128V2.28592C89.0035 1.56334 88.7282 1.18485 88.1089 1.18485H86.3196V0.0837708H92.1003V22.6902C92.1003 23.4128 92.3756 23.7569 92.9949 23.7569H94.7842V24.858H89.3476V21.7268ZM89.1067 16.4623C89.1067 11.4042 87.3175 8.75474 83.9454 8.75474C80.539 8.75474 78.7497 11.3698 78.7497 16.359C78.7497 21.3139 80.539 23.8945 83.9454 23.8945C87.3175 23.8945 89.1067 21.3139 89.1067 16.4623Z" fill="#F9F9F9"/>
<path d="M71.6883 19.387C70.8969 23.1375 68.3163 25.202 64.2217 25.202C59.4045 25.202 55.6539 21.9332 55.6539 16.2902C55.6539 10.6472 59.3357 7.37839 63.9808 7.37839C68.4539 7.37839 71.9292 10.4063 71.9292 16.0494H58.9228C58.9228 16.2902 58.9228 16.5311 58.9572 16.7719C59.026 21.4515 61.1249 23.9633 64.669 23.9633C65.0131 23.9633 65.3572 23.9289 65.6668 23.8945C68.1787 23.6193 69.727 22.1397 70.3808 19.387H71.6883ZM64.0152 8.51387C60.9873 8.51387 59.2324 10.716 58.9916 14.9139H68.9357C68.8324 10.6816 67.112 8.51387 64.0152 8.51387Z" fill="#F9F9F9"/>
<path d="M41.7963 30.6386V31.7397H32.7124V30.6386H34.5016C35.121 30.6386 35.3963 30.2601 35.3963 29.5375V9.92462C35.3963 9.20204 35.121 8.85796 34.5016 8.85796H32.7124V7.72247H38.1834V10.9913H38.3554C39.5597 8.65151 41.693 7.37839 44.2737 7.37839C48.6092 7.37839 52.1189 10.6472 52.1189 16.2214C52.1189 21.9332 48.6436 25.202 44.2049 25.202C41.7619 25.202 39.7318 24.0322 38.493 21.83V29.5031C38.493 30.2601 38.7683 30.6386 39.3877 30.6386H41.7963ZM38.4242 16.1182C38.4242 21.0042 40.2479 23.8257 43.6199 23.8257C46.992 23.8257 48.8156 21.2451 48.8156 16.2214C48.8156 11.2666 46.992 8.68591 43.5855 8.68591C40.2479 8.68591 38.4242 11.2666 38.4242 16.1182Z" fill="#F9F9F9"/>
<path d="M22.6077 26.6816C21.2658 30.0881 19.8206 31.8085 17.4808 32.0494C17.2056 32.0838 16.9647 32.0838 16.7239 32.0838C14.212 31.9805 12.8701 30.4322 12.8701 28.8838C12.8701 27.7483 13.6271 27.0945 14.5561 27.0945C15.4507 27.0945 16.2421 27.6106 16.2421 28.6773C16.2421 29.3311 15.7948 29.8816 15.1411 29.9848C15.0378 30.0193 14.969 30.0537 14.8658 30.0193C15.2443 30.5354 15.9325 30.9139 16.9647 30.9139C19.1669 30.9139 20.1303 29.3311 21.4378 26.3031C21.5411 26.0623 21.6443 25.8558 21.7131 25.6149L15.1755 10.2687C14.6937 9.09882 14.4529 8.85796 13.6271 8.85796H12.526V7.72247H20.6464V8.85796H19.5109C19.2701 8.85796 19.098 8.85796 18.926 8.89237C18.2722 9.03 18.169 9.4429 18.4787 10.2343L23.2271 21.83L27.6658 10.2343C28.0787 9.13323 27.7002 8.85796 26.7368 8.85796H25.5669V7.72247H31.6572V8.85796H30.797C29.7303 8.85796 29.455 9.20204 29.0077 10.4063L28.5948 11.473L22.6077 26.6816Z" fill="#F9F9F9"/>
<path d="M11.4001 21.2106C11.4001 23.688 9.98938 25.202 7.37432 25.202C4.34636 25.202 2.83239 23.8257 2.83239 20.3504V8.85793H0.0452881V7.72245H1.45604C3.00443 7.72245 3.72701 7.30954 4.03669 5.10739L4.27755 3.38696H5.92916V7.72245H11.5378V8.85793H5.92916V20.9698C5.92916 23.1375 6.68615 23.8257 8.02808 23.8257C9.33561 23.8257 10.2646 23.1375 10.2646 21.1074V19.387H11.4001V21.2106Z" fill="#F9F9F9"/>
</svg>
